<svg id="al93k4as9h1z" version="1.1" xmlns="http://www.w3.org/2000/svg" xmlns:xlink="http://www.w3.org/1999/xlink" width="60" height="60" viewBox="0 0 60 60" style="" ><defs ></defs><svg stroke-opacity="0.1" stroke="#fff" stroke-width="0" fill="#ffc90d" x="0" y="0" ><path d="M 30 30m -30, 0a 30,30 0 1,0 60,0a 30,30 0 1,0 -60,0" ></path></svg><svg x="14.475000000000003" y="17.728968253968254" stroke="rgb(40, 40, 42)" stroke-width="0.15" stroke-opacity="0.15" stroke-linecap="round" stroke-linejoin="round" fill="#fff" ><path d="M5.557 5.065L5.557 5.065L5.557 5.065Q3.128 7.541 3.128 12.271L3.128 12.271L3.128 12.271Q3.128 17.002 5.557 19.478L5.557 19.478L5.557 19.478Q7.985 21.954 11.477 21.954L11.477 21.954L11.477 21.954Q12.493 21.954 13.731 21.716L13.731 21.716L13.731 21.716Q14.969 21.478 15.699 21.224L15.699 21.224L16.398 21.002L16.398 23.065L16.398 23.065Q14.112 24.017 11.160 24.017L11.160 24.017L11.160 24.017Q6.588 24.017 3.557 21.002L3.557 21.002L3.557 21.002Q0.525 17.986 0.525 12.271L0.525 12.271L0.525 12.271Q0.525 6.557 3.557 3.541L3.557 3.541L3.557 3.541Q6.588 0.525 11.160 0.525L11.160 0.525L11.160 0.525Q12.461 0.525 13.779 0.763L13.779 0.763L13.779 0.763Q15.096 1.002 15.763 1.224L15.763 1.224L16.398 1.478L16.398 3.541L16.398 3.541Q13.795 2.589 11.477 2.589L11.477 2.589L11.477 2.589Q7.985 2.589 5.557 5.065ZM17.826 6.081L17.826 6.081L17.826 6.081Q17.826 3.605 19.779 2.065L19.779 2.065L19.779 2.065Q21.731 0.525 24.811 0.525L24.811 0.525L24.811 0.525Q26.334 0.525 27.604 0.763L27.604 0.763L27.604 0.763Q28.874 1.002 29.382 1.224L29.382 1.224L29.890 1.478L29.890 3.541L29.890 3.541Q27.541 2.589 24.811 2.589L24.811 2.589L24.811 2.589Q22.779 2.589 21.604 3.573L21.604 3.573L21.604 3.573Q20.430 4.557 20.430 6.081L20.430 6.081L20.430 6.081Q20.430 7.414 21.334 8.494L21.334 8.494L21.334 8.494Q22.239 9.573 24.779 11.033L24.779 11.033L24.779 11.033Q27.985 12.875 29.255 14.256L29.255 14.256L29.255 14.256Q30.525 15.637 30.525 17.986L30.525 17.986L30.525 17.986Q30.525 20.843 28.604 22.430L28.604 22.430L28.604 22.430Q26.684 24.017 23.541 24.017L23.541 24.017L23.541 24.017Q21.890 24.017 20.461 23.779L20.461 23.779L20.461 23.779Q19.033 23.541 18.430 23.319L18.430 23.319L17.826 23.065L17.826 21.002L17.826 21.002Q20.080 21.954 23.541 21.954L23.541 21.954L23.541 21.954Q25.477 21.954 26.699 20.938L26.699 20.938L26.699 20.938Q27.922 19.922 27.922 17.986L27.922 17.986L27.922 17.986Q27.922 16.525 27.017 15.589L27.017 15.589L27.017 15.589Q26.112 14.652 23.541 13.192L23.541 13.192L23.541 13.192Q20.144 11.224 18.985 9.827L18.985 9.827L18.985 9.827Q17.826 8.430 17.826 6.081Z" ></path></svg></svg>